<svg xmlns="http://www.w3.org/2000/svg" width="1387" height="756" viewBox="0 0 1387 756">
<g>
<path d="M 855.00 429.20 L 855.00 463.00 L 844.06 463.00 C838.04,463.00 832.91,462.66 832.65,462.24 C832.13,461.40 831.76,418.09 831.91,375.17 L 832.00 347.83 L 864.75 348.24 C897.18,348.64 897.57,348.67 904.83,351.29 C914.68,354.84 918.24,357.20 923.45,363.60 C930.72,372.53 933.41,386.11 930.44,398.93 C927.21,412.82 918.68,421.51 903.12,426.72 C899.73,427.86 892.70,428.39 876.75,428.73 ZM 529.89 460.70 C520.11,464.23 502.09,464.91 492.00,462.12 C477.87,458.21 467.16,450.18 462.05,439.68 C456.31,427.87 456.00,425.10 456.00,384.86 L 456.00 348.13 L 465.88 347.82 C471.32,347.64 476.49,347.65 477.38,347.82 C478.84,348.11 479.00,351.77 479.00,383.89 C479.00,425.05 479.25,426.72 486.48,434.77 C499.75,449.52 525.14,447.56 533.41,431.15 C537.51,423.01 538.00,417.76 538.00,381.95 L 538.00 348.00 L 561.00 348.00 L 560.99 382.75 C560.99,401.86 560.52,420.42 559.96,424.00 C557.24,441.11 545.96,454.89 529.89,460.70 ZM 710.80 438.75 C699.43,460.96 695.39,468.00 694.00,468.00 C692.17,468.00 689.89,463.91 666.95,419.50 C662.69,411.25 654.21,394.83 648.10,383.00 C642.00,371.17 635.85,360.49 634.44,359.25 C630.30,355.60 627.28,356.31 621.56,362.25 C610.57,373.66 602.07,398.00 598.85,427.25 C597.86,436.28 597.40,438.00 595.96,438.00 C595.02,438.00 593.81,437.44 593.29,436.75 C590.43,433.01 596.54,398.82 603.00,382.43 C611.35,361.26 621.77,350.58 638.18,346.37 C655.04,342.05 671.97,352.10 682.83,372.86 C689.72,386.04 691.98,392.73 691.28,397.91 C690.98,400.16 690.45,402.00 690.09,402.00 C689.74,402.00 688.17,398.51 686.61,394.25 C679.32,374.41 668.97,359.87 658.12,354.26 C652.81,351.51 650.75,351.00 644.97,351.00 C641.14,351.00 637.82,351.48 637.45,352.08 C637.08,352.68 637.90,354.36 639.26,355.83 C641.59,358.34 661.09,394.93 680.76,433.74 C685.57,443.22 689.78,450.98 690.13,450.99 C690.48,451.00 690.84,446.39 690.92,440.75 C691.42,408.08 700.91,368.24 714.98,339.72 C719.81,329.92 731.29,313.00 733.10,313.00 C733.57,313.00 734.24,314.10 734.57,315.44 C735.05,317.35 733.76,320.03 728.63,327.73 C725.02,333.15 720.07,341.84 717.64,347.04 C713.54,355.79 705.68,378.45 703.08,389.00 C699.44,403.81 695.56,437.17 696.18,448.50 L 696.50 454.50 L 708.69 430.39 C726.90,394.35 744.60,360.47 749.78,351.76 C755.78,341.64 758.64,338.97 764.14,338.34 L 768.50 337.85 L 765.37 340.67 C757.93,347.39 753.37,355.58 710.80,438.75 ZM 856.25 410.41 C856.94,410.73 865.05,410.82 874.28,410.60 C890.36,410.24 891.30,410.10 896.78,407.36 C901.18,405.16 903.19,403.37 905.48,399.61 C911.33,390.01 908.60,376.07 899.71,370.18 C895.69,367.52 895.47,367.50 875.33,367.19 L 855.00 366.89 L 855.00 388.36 C855.00,404.56 855.31,409.97 856.25,410.41 ZM 787.03 330.30 C782.91,332.35 780.28,332.97 776.05,332.86 C773.00,332.79 771.52,332.53 772.76,332.29 C774.01,332.05 774.80,331.49 774.53,331.04 C774.25,330.59 775.93,329.93 778.26,329.58 C792.41,327.41 804.00,312.90 804.00,297.35 C804.00,293.06 804.28,292.17 805.50,292.64 C806.63,293.07 807.00,294.87 807.00,299.86 C807.00,312.05 798.92,324.37 787.03,330.30 ZM 745.67 275.59 C745.97,276.37 745.99,277.00 745.71,277.00 C745.44,277.00 744.97,276.38 744.68,275.61 C744.06,273.99 749.28,268.62 750.40,269.74 C750.82,270.16 751.02,269.93 750.83,269.23 C750.35,267.38 757.71,263.31 759.08,264.68 C759.85,265.45 758.82,266.65 755.51,268.89 C752.95,270.62 750.41,271.75 749.87,271.42 C748.44,270.53 745.03,273.93 745.67,275.59 ZM 740.97 286.68 C740.95,288.23 740.33,290.30 739.58,291.28 C738.32,292.95 738.19,292.90 737.61,290.57 C736.84,287.51 739.56,280.33 741.49,280.33 C742.52,280.33 742.64,280.80 741.95,282.10 C741.43,283.07 740.99,285.14 740.97,286.68 ZM 740.37 309.75 C740.85,313.97 740.26,313.86 738.38,309.37 C737.33,306.86 737.18,305.42 737.90,304.70 C739.12,303.48 739.82,304.91 740.37,309.75 Z" fill="#000000"/>
<path d="M 0.00 0.00 L 1387.00 0.00 L 1387.00 756.00 L 0.00 756.00 ZM 685.88 472.25 C686.02,473.15 693.54,473.24 697.78,472.39 C700.46,471.86 700.88,471.28 701.47,467.38 C701.83,464.96 701.81,461.99 701.43,460.79 C700.81,458.83 700.48,459.10 698.35,463.30 C696.72,466.50 695.51,468.17 694.12,467.98 C695.21,467.71 697.69,463.80 703.20,453.39 L 700.94 457.78 L 704.57 456.54 C709.17,454.96 709.85,453.81 709.26,448.62 C708.77,444.25 709.57,442.96 714.36,440.46 C715.54,439.84 716.36,438.72 716.19,437.97 C715.74,436.06 719.10,428.94 720.14,429.59 C720.61,429.88 721.00,429.39 721.00,428.50 C721.00,427.61 721.40,427.13 721.90,427.44 C722.97,428.10 724.00,425.71 724.00,422.54 C724.00,419.24 726.57,413.57 729.49,410.42 C730.87,408.93 732.01,406.99 732.03,406.10 C732.08,403.57 734.74,400.69 736.42,401.33 C739.39,402.47 741.21,399.14 740.48,393.87 C739.78,388.79 741.16,386.00 744.37,386.00 C746.47,386.00 747.41,384.17 747.70,379.50 C748.12,372.92 748.83,371.31 751.89,370.04 C754.83,368.83 756.37,366.07 756.02,362.64 C755.62,358.56 757.10,355.86 760.54,354.42 C762.66,353.54 764.00,352.28 764.00,351.19 C764.00,348.68 765.96,347.01 768.95,346.97 C773.15,346.92 775.30,344.64 774.52,341.07 C773.98,338.62 774.17,338.00 775.48,338.00 C776.38,338.00 776.85,337.57 776.52,337.04 C776.18,336.48 777.24,336.54 779.05,337.17 C781.39,337.98 782.04,338.72 781.68,340.13 C781.32,341.50 781.85,342.18 783.67,342.63 C786.73,343.40 788.82,341.69 787.20,339.75 C785.40,337.57 789.21,332.88 794.45,330.82 C796.95,329.84 799.00,329.48 799.00,330.02 C799.00,331.37 802.35,331.25 803.75,329.85 C804.53,329.07 804.59,328.11 803.94,326.90 C802.50,324.19 804.91,316.03 807.21,315.88 C812.55,315.50 813.16,314.60 812.50,308.12 C812.18,304.98 812.31,301.33 812.80,300.01 C813.69,297.60 812.31,292.00 810.81,292.00 C810.40,292.00 810.33,291.29 810.67,290.43 C811.00,289.56 810.71,287.15 810.02,285.07 C809.03,282.07 809.03,280.81 810.00,278.99 C811.05,277.04 811.01,276.78 809.71,277.28 C807.98,277.95 805.00,275.11 805.00,272.81 C805.00,270.79 801.08,265.83 800.01,266.49 C798.83,267.22 795.91,265.95 796.52,264.98 C797.73,263.02 791.69,260.00 786.57,260.00 C783.72,260.00 780.93,259.53 780.35,258.95 C779.07,257.67 758.96,257.13 759.74,258.40 C760.05,258.90 759.15,259.00 757.71,258.64 C756.23,258.27 754.84,258.45 754.45,259.08 C754.08,259.67 752.81,259.92 751.63,259.62 C748.86,258.93 747.06,260.07 746.52,262.88 C746.29,264.11 744.84,266.41 743.30,268.00 C741.76,269.60 739.76,271.71 738.85,272.70 C737.94,273.69 735.97,275.35 734.48,276.38 C732.04,278.08 731.82,278.72 732.29,282.85 C732.64,285.96 732.22,288.90 730.98,292.04 C729.81,295.02 729.49,297.16 730.07,298.08 C730.56,298.86 730.98,300.92 730.98,302.65 C731.00,305.23 730.48,305.99 728.14,306.80 C725.50,307.72 725.29,308.16 725.47,312.44 C725.62,316.05 725.16,317.62 723.38,319.54 C722.12,320.89 720.45,322.00 719.65,322.00 C718.11,322.00 717.00,324.07 717.00,326.96 C717.00,327.95 716.10,329.37 715.01,330.13 C713.92,330.88 711.90,334.62 710.54,338.43 C708.02,345.43 706.83,346.96 703.86,346.98 C701.93,347.00 700.86,349.16 701.93,350.89 C702.35,351.56 702.26,354.45 701.75,357.30 C701.24,360.16 700.83,364.15 700.85,366.16 C700.87,368.37 700.34,370.04 699.52,370.35 C698.77,370.64 697.41,372.45 696.50,374.36 C694.87,377.80 693.52,378.79 689.41,379.58 C687.93,379.86 686.98,379.26 686.19,377.53 C685.53,376.08 685.45,374.84 685.99,374.50 C686.50,374.19 686.68,373.33 686.40,372.60 C686.12,371.86 685.80,369.33 685.69,366.97 C685.51,362.90 685.30,362.62 681.68,361.59 C679.57,360.99 677.88,360.16 677.93,359.75 C678.39,355.06 678.13,354.74 672.97,353.62 C671.13,353.22 670.38,352.36 670.22,350.45 C669.90,346.54 669.26,346.00 664.91,346.00 C661.21,346.00 656.48,343.91 654.77,341.52 C654.36,340.96 654.02,340.91 654.02,341.40 C654.01,341.90 653.21,341.64 652.25,340.83 C650.33,339.20 644.74,339.29 644.18,340.96 C643.74,342.29 640.31,342.32 639.50,341.00 C638.42,339.25 635.20,339.92 632.30,342.48 C630.76,343.85 629.05,345.34 628.50,345.79 C627.95,346.24 624.69,346.56 621.25,346.50 C615.97,346.41 614.92,346.68 614.41,348.27 C614.09,349.31 614.07,350.40 614.37,350.71 C615.52,351.86 612.86,355.09 611.19,354.57 C607.74,353.50 606.66,355.44 607.30,361.57 C607.95,367.92 607.28,369.81 602.89,374.11 C601.30,375.66 599.96,377.74 599.92,378.72 C599.61,385.57 597.83,392.42 595.80,394.66 C594.59,395.98 593.94,397.91 594.11,399.66 C594.26,401.22 593.90,403.40 593.32,404.50 C592.44,406.13 592.52,417.85 593.41,418.75 C593.51,418.84 594.21,415.96 595.14,411.69 C592.81,423.86 591.74,434.73 593.29,436.75 C593.51,437.04 593.86,437.31 594.26,437.53 C591.24,437.11 590.53,438.18 593.22,439.62 C595.91,441.06 597.24,440.22 599.50,435.70 C600.88,432.94 600.88,432.45 599.52,431.09 C599.05,430.62 598.72,430.35 598.50,430.35 C598.61,429.43 598.73,428.40 598.85,427.25 C599.00,425.91 599.16,424.59 599.33,423.28 C599.16,426.67 600.03,427.05 602.14,425.09 C603.85,423.49 603.99,422.84 602.99,420.97 C602.05,419.22 602.06,418.92 603.06,419.53 C604.01,420.13 604.17,419.44 603.72,416.63 C603.36,414.44 603.50,413.19 604.06,413.54 C604.58,413.86 605.02,413.98 605.04,413.81 C605.07,413.64 605.33,409.67 605.64,405.00 C606.25,395.56 607.00,394.00 610.96,394.00 C614.44,394.00 615.18,393.20 613.90,390.82 C613.20,389.51 613.20,387.89 613.91,385.70 C614.48,383.94 615.07,380.63 615.23,378.35 C615.38,376.06 615.84,374.40 616.25,374.66 C616.66,374.91 617.00,374.66 617.00,374.11 C617.00,373.56 618.35,371.84 619.99,370.30 C621.68,368.72 623.08,366.30 623.21,364.75 C623.38,362.72 623.97,362.00 625.47,362.02 C628.32,362.04 630.50,363.62 630.50,365.69 C630.50,366.65 632.08,368.35 634.00,369.47 C637.91,371.74 638.12,372.24 638.39,380.00 C638.57,385.08 638.77,385.51 641.04,385.65 C642.39,385.73 643.99,385.85 644.58,385.90 C645.85,386.02 646.07,387.46 646.00,395.33 L 645.94 401.16 L 649.21 400.83 C651.83,400.56 652.53,400.89 652.79,402.50 C653.38,406.14 655.22,409.98 656.12,409.43 C656.60,409.13 657.00,409.34 657.00,409.91 C657.00,410.47 657.60,410.71 658.34,410.42 C659.78,409.87 662.68,412.66 661.69,413.65 C661.36,413.98 662.03,416.10 663.19,418.37 C664.35,420.64 665.23,422.61 665.15,422.75 C664.58,423.71 665.31,425.21 667.17,426.94 C668.60,428.27 669.33,430.16 669.33,432.48 C669.33,434.42 669.73,436.00 670.23,436.00 C670.72,436.00 670.88,436.38 670.59,436.85 C669.72,438.26 672.38,441.08 674.74,441.26 C675.96,441.35 677.20,442.07 677.50,442.85 C677.80,443.64 678.29,444.04 678.60,443.74 C678.90,443.43 674.66,434.48 669.18,423.84 C664.29,414.36 656.23,398.74 650.21,387.08 C656.04,398.36 663.16,412.16 666.95,419.50 C685.07,454.57 690.30,464.50 692.60,467.12 C691.05,465.66 689.13,462.33 686.28,456.82 C683.10,450.67 680.05,445.84 679.50,446.07 C677.46,446.95 678.98,454.08 681.71,456.43 C684.32,458.67 684.67,459.73 685.39,467.50 C685.60,469.70 685.82,471.84 685.88,472.25 ZM 827.67 464.33 C828.03,464.70 834.50,465.00 842.04,465.00 C852.52,465.00 856.03,464.67 856.91,463.61 C857.69,462.67 857.95,457.95 857.71,448.86 C857.52,441.51 857.56,434.72 857.79,433.77 C858.16,432.29 859.38,432.06 866.12,432.21 C871.10,432.31 874.46,431.94 875.21,431.19 C876.65,429.75 889.40,429.54 888.52,430.97 C888.14,431.58 890.98,431.93 895.96,431.90 C900.38,431.87 904.01,431.54 904.03,431.17 C904.05,430.80 904.99,429.39 906.11,428.04 C907.88,425.92 909.08,425.56 914.69,425.43 C921.47,425.27 923.15,424.28 922.27,420.93 C921.91,419.54 922.49,418.94 924.65,418.49 C928.99,417.57 930.53,416.41 930.16,414.36 C929.98,413.34 929.83,410.34 929.84,407.71 L 929.85 402.91 L 927.38 407.87 C926.76,409.11 925.98,410.37 925.07,411.62 C927.55,407.97 929.31,403.77 930.44,398.93 C930.76,397.55 931.01,396.16 931.20,394.76 C931.09,396.04 930.92,397.22 930.70,398.25 C930.19,400.70 930.27,402.00 930.95,402.00 C931.53,402.00 932.00,401.55 932.00,401.00 C932.00,400.45 932.87,400.00 933.93,400.00 C935.00,400.00 936.16,399.09 936.52,397.95 C937.21,395.76 935.36,392.66 933.89,393.57 C933.40,393.87 933.07,390.84 933.15,386.81 C933.29,380.03 933.35,379.83 934.04,384.00 C934.68,387.89 934.76,387.50 934.67,381.17 C934.57,374.91 934.26,373.66 932.53,372.67 C931.41,372.02 930.41,370.49 930.31,369.25 C929.67,361.71 929.56,361.50 926.29,361.92 C925.62,362.00 924.16,360.27 923.03,358.06 C921.18,354.42 920.71,354.11 917.99,354.65 C916.35,354.98 914.96,354.86 914.92,354.38 C914.53,350.33 914.25,348.92 913.72,348.39 C913.39,348.06 910.50,347.58 907.31,347.34 C896.59,346.54 893.51,346.18 891.25,345.47 C888.61,344.64 888.40,345.25 890.57,347.43 C891.24,348.10 892.56,348.67 893.82,348.90 C888.73,348.54 880.54,348.43 864.75,348.24 L 832.26 347.84 C832.17,347.30 832.04,347.00 831.86,347.00 C831.51,347.00 830.17,347.85 828.89,348.89 C826.88,350.52 826.75,350.99 827.93,352.42 C829.08,353.80 829.08,354.48 827.97,356.55 C826.95,358.46 826.91,359.31 827.82,360.22 C828.47,360.87 829.00,362.47 829.00,363.77 C829.00,365.82 829.19,365.95 830.42,364.72 C831.01,364.13 831.59,360.98 831.97,357.49 L 831.91 375.17 C831.88,381.54 831.87,387.92 831.87,394.18 C831.76,372.51 831.42,367.99 830.44,367.62 C829.20,367.14 829.00,373.15 829.00,411.03 C829.00,439.68 828.65,455.00 828.00,455.00 C826.90,455.00 826.60,463.27 827.67,464.33 ZM 493.50 465.28 C500.65,466.07 506.95,466.78 507.50,466.85 C508.05,466.92 512.33,466.56 517.00,466.05 C521.67,465.53 527.53,465.00 530.00,464.87 C535.71,464.56 538.85,463.24 542.00,459.82 C543.61,458.07 545.74,457.00 548.00,456.80 C551.16,456.53 551.53,456.18 551.82,453.20 C552.03,450.94 552.84,449.57 554.37,448.88 C558.40,447.04 560.16,441.98 560.43,431.50 C560.47,429.85 561.18,427.83 562.01,427.00 C562.85,426.17 564.41,423.82 565.48,421.77 C567.02,418.83 567.17,417.77 566.22,416.82 C565.55,416.15 565.00,414.11 565.00,412.30 C565.00,410.48 564.55,409.00 564.00,409.00 C563.45,409.00 563.00,406.72 563.00,403.94 C563.00,400.82 563.38,399.12 564.00,399.50 C564.63,399.89 565.03,397.24 565.09,392.31 C565.30,372.66 566.12,356.81 567.04,354.38 C568.32,351.02 565.98,347.00 562.73,347.00 L 560.50 347.00 L 560.51 348.00 L 538.38 348.00 C538.39,346.86 538.38,346.23 538.37,346.20 C538.30,346.04 537.51,346.63 536.62,347.52 C535.63,348.52 534.97,350.93 534.92,353.82 C534.78,362.32 534.81,394.61 534.98,418.79 C535.00,420.93 534.14,423.02 532.53,424.75 C531.09,426.30 530.48,427.68 531.06,428.04 C531.62,428.38 531.78,429.41 531.43,430.33 C531.05,431.30 531.27,432.00 531.95,432.00 C532.59,432.00 532.87,431.60 532.56,431.10 C532.26,430.61 532.66,429.96 533.44,429.66 C533.80,429.52 534.12,429.33 534.41,429.04 C534.10,429.74 533.77,430.43 533.41,431.15 C532.86,432.24 532.24,433.26 531.55,434.22 C531.70,433.75 531.54,433.42 531.12,433.14 C530.35,432.63 529.00,432.36 528.12,432.53 C527.23,432.71 525.34,432.88 523.92,432.92 C522.50,432.97 521.32,433.56 521.29,434.25 C521.13,439.59 517.81,442.35 511.57,442.35 C500.42,442.36 497.00,441.34 497.00,438.03 C497.00,436.07 493.67,432.67 492.69,433.64 C491.60,434.73 489.03,431.91 488.21,428.72 C487.73,426.88 486.27,425.07 484.46,424.10 C482.32,422.94 481.48,421.74 481.44,419.75 C481.40,418.24 481.29,401.30 481.19,382.11 C481.02,350.77 480.83,347.15 479.36,346.58 C478.45,346.24 477.44,346.25 477.11,346.61 C476.77,346.98 477.06,347.47 477.75,347.72 C477.98,347.80 478.17,348.31 478.32,349.39 C478.09,348.25 477.79,347.90 477.38,347.82 C476.49,347.65 471.32,347.64 465.88,347.82 L 456.00 348.13 L 456.00 349.67 C455.76,347.53 455.36,347.25 454.75,347.29 C453.79,347.37 452.99,348.12 452.98,348.96 C452.97,350.23 452.81,350.26 452.09,349.12 C451.41,348.03 451.07,348.19 450.54,349.87 C449.14,354.27 452.39,357.96 454.18,354.00 C454.55,353.17 454.89,354.84 454.93,357.69 C454.97,360.55 454.55,363.16 454.00,363.50 C453.45,363.84 453.00,366.76 453.00,370.00 C453.00,373.24 453.45,376.16 454.00,376.50 C455.23,377.26 455.37,403.00 454.14,403.00 C453.67,403.00 452.98,407.49 452.60,412.98 C451.89,423.28 452.50,426.15 455.91,428.67 C456.78,429.31 457.58,429.76 457.68,429.66 C457.78,429.56 457.43,427.46 456.90,424.99 C456.72,424.14 456.57,421.55 456.45,417.71 C457.08,428.66 458.56,432.50 462.05,439.68 C462.52,440.65 463.04,441.60 463.60,442.52 C462.53,440.90 461.64,439.30 461.00,437.75 C459.70,434.59 458.25,432.00 457.78,432.00 C456.53,432.00 457.09,445.74 458.41,447.55 C459.03,448.39 460.54,449.17 461.77,449.26 C464.01,449.43 465.64,452.16 464.55,453.92 C463.75,455.21 467.89,457.98 469.62,457.32 C470.52,456.97 471.53,458.03 472.49,460.33 C473.77,463.38 474.44,463.88 477.24,463.86 C479.03,463.85 486.35,464.48 493.50,465.28 ZM 698.41 416.88 C698.61,415.28 698.82,413.69 699.03,412.10 C699.14,413.19 699.53,414.00 700.00,414.00 C700.55,414.00 701.00,412.88 701.00,411.50 C701.00,410.12 700.55,409.00 700.00,409.00 C699.77,409.00 699.56,409.20 699.39,409.53 C699.62,407.86 699.87,406.22 700.12,404.61 C700.52,404.43 701.95,403.20 703.64,401.56 C707.24,398.06 707.96,395.49 706.75,390.50 C706.48,389.40 706.71,387.63 707.27,386.56 C707.82,385.49 708.40,382.05 708.56,378.92 C708.76,374.80 709.58,372.03 711.52,368.96 C713.00,366.63 715.04,362.30 716.05,359.35 C718.16,353.22 720.35,349.68 721.39,350.73 C721.78,351.12 721.81,350.67 721.45,349.73 C721.03,348.63 721.37,347.79 722.43,347.39 C723.42,347.01 723.85,346.09 723.51,345.04 C722.93,343.20 726.64,337.66 727.92,338.45 C728.33,338.71 729.69,338.20 730.94,337.33 C732.57,336.19 732.86,335.53 731.97,334.98 C731.23,334.53 731.07,333.69 731.57,332.88 C732.33,331.66 732.71,330.04 733.18,326.19 C733.26,325.47 734.54,324.25 736.02,323.49 C738.67,322.12 738.73,322.16 739.91,326.10 C741.21,330.44 741.53,330.66 747.50,331.33 C752.61,331.89 754.70,332.77 755.43,334.67 C756.21,336.71 755.27,338.00 753.01,338.00 C750.80,338.00 747.74,340.77 748.54,342.06 C749.59,343.76 746.96,347.00 744.53,347.00 C741.75,347.00 740.94,348.87 740.43,356.38 C740.10,361.18 739.17,362.74 735.61,364.46 C734.85,364.83 734.91,365.19 735.79,365.60 C736.78,366.06 736.81,366.52 735.92,367.60 C735.28,368.37 735.15,369.01 735.63,369.02 C736.11,369.02 735.97,369.37 735.32,369.78 C734.66,370.20 733.98,371.65 733.79,373.02 C733.32,376.43 732.04,378.23 730.51,377.64 C727.45,376.47 724.20,383.28 726.24,386.57 C727.14,388.03 724.85,392.26 722.48,393.51 C720.54,394.53 719.97,395.70 719.71,399.24 C719.63,400.21 719.30,401.00 718.95,401.00 C718.36,401.00 718.04,402.58 717.92,406.13 C717.88,407.03 716.32,408.59 714.43,409.61 C710.96,411.48 709.11,415.03 708.68,420.66 C708.43,423.80 704.41,426.58 702.45,424.96 C701.82,424.44 701.02,424.31 700.66,424.68 C700.30,425.04 699.99,423.57 699.98,421.42 C699.97,416.65 699.14,415.04 698.41,416.88 ZM 888.68 407.25 C888.16,408.72 886.80,409.00 880.28,408.98 C874.89,408.97 872.96,408.67 874.00,408.00 C875.03,407.33 872.80,407.03 866.84,407.02 L 858.19 407.00 L 857.49 401.95 C857.11,399.18 857.12,390.86 857.52,383.45 L 858.24 370.00 L 875.56 370.00 C893.91,370.00 898.00,370.71 898.00,373.90 C898.00,376.39 900.84,379.28 902.62,378.59 C904.14,378.01 904.80,380.11 905.22,386.96 C905.48,391.01 905.21,391.59 902.29,393.46 C900.42,394.64 899.06,396.36 899.04,397.55 C898.99,400.21 897.15,402.00 894.46,402.00 C892.22,402.00 889.75,404.25 888.68,407.25 ZM 678.95 377.29 C681.65,382.18 684.16,387.66 686.38,393.63 C685.29,390.86 683.88,387.51 682.74,385.00 C679.81,378.57 679.77,378.53 678.78,381.31 C678.24,382.86 678.09,386.12 678.46,388.57 C678.99,392.09 679.71,393.32 681.94,394.47 C685.23,396.17 686.00,397.78 686.00,402.97 C686.00,405.06 686.61,408.21 687.35,409.98 C688.47,412.64 688.48,413.82 687.39,416.84 C686.68,418.86 686.07,421.48 686.04,422.67 C685.99,425.29 684.26,426.04 681.30,424.71 C679.00,423.68 677.00,419.34 677.00,415.39 C677.00,413.09 676.64,412.63 672.14,409.20 C670.35,407.84 669.78,406.44 669.80,403.45 C669.83,396.87 669.20,395.33 665.90,393.96 C664.19,393.25 662.16,392.67 661.41,392.67 C660.61,392.67 660.36,392.21 660.80,391.58 C662.18,389.65 662.19,384.94 660.83,383.26 C659.70,381.86 659.72,381.75 661.00,382.52 C662.24,383.26 662.22,382.99 660.87,380.96 C659.98,379.61 658.58,378.49 657.76,378.48 C656.04,378.47 652.71,375.95 653.44,375.23 C653.71,374.96 653.48,373.90 652.93,372.87 C652.24,371.58 652.26,371.00 653.00,371.00 C653.75,371.00 653.74,370.38 652.97,368.94 C651.66,366.50 652.84,364.65 657.11,362.44 C659.71,361.10 659.98,361.17 661.92,363.76 C664.37,367.04 664.81,367.49 667.88,369.82 C669.19,370.81 670.37,372.72 670.50,374.06 C670.63,375.40 670.80,376.78 670.87,377.13 C671.04,377.96 678.25,378.04 678.95,377.29 ZM 785.50 322.00 C786.30,323.29 786.02,323.26 782.97,321.67 C781.58,320.94 779.90,320.53 779.22,320.76 C777.49,321.34 777.70,318.49 779.50,317.00 C780.33,316.32 781.00,314.29 781.00,312.50 C781.00,308.95 783.13,306.45 785.41,307.33 C787.36,308.08 789.08,305.80 788.76,302.90 C788.55,301.01 789.00,300.51 790.99,300.40 C794.19,300.21 796.14,300.96 795.44,302.10 C795.13,302.60 795.25,303.00 795.70,303.00 C796.15,303.00 796.36,305.14 796.17,307.75 C795.82,312.68 793.90,315.28 791.35,314.31 C789.69,313.67 787.08,316.66 787.03,319.25 C787.01,320.21 786.52,321.00 785.94,321.00 C785.36,321.00 785.16,321.45 785.50,322.00 ZM 653.03 359.94 C652.44,361.05 651.11,362.40 650.09,362.95 C648.52,363.79 648.01,363.45 646.93,360.83 C645.75,357.97 645.83,357.56 647.93,355.86 C649.19,354.84 650.82,354.00 651.54,354.00 C653.42,354.00 654.31,357.55 653.03,359.94 ZM 774.18 254.33 C773.82,256.18 775.68,256.50 778.00,255.00 C779.27,254.18 779.22,254.03 777.69,254.02 C776.60,254.01 776.16,253.55 776.58,252.87 C777.00,252.18 776.73,251.92 775.89,252.20 C775.13,252.46 774.35,253.42 774.18,254.33 ZM 538.00 379.43 L 538.00 381.95 C538.00,405.26 537.79,415.62 536.52,422.25 C537.29,416.03 537.62,404.70 537.93,384.00 C537.96,382.45 537.98,380.93 538.00,379.43 ZM 726.70 287.61 C727.41,289.41 727.46,289.41 727.81,287.67 C728.19,285.77 727.39,284.28 726.48,285.19 C726.19,285.48 726.29,286.57 726.70,287.61 ZM 531.50 460.08 C540.37,456.51 547.68,450.45 552.76,442.75 C547.65,450.89 540.59,456.66 531.50,460.08 ZM 616.84 358.81 C620.25,355.01 623.94,352.07 627.86,350.07 C630.82,348.56 634.27,347.34 637.69,346.50 C629.36,348.72 622.58,352.64 616.84,358.81 ZM 705.75 436.20 L 696.50 454.50 L 696.46 453.72 C697.41,452.27 701.11,445.27 705.75,436.20 ZM 750.26 362.85 C758.39,348.09 761.49,344.18 765.37,340.67 C761.66,344.02 757.29,350.29 750.26,362.85 ZM 832.62 462.14 C832.58,462.12 832.56,462.09 832.54,462.07 C832.26,461.61 832.00,443.95 831.94,421.54 C832.05,443.97 832.31,460.65 832.62,462.14 ZM 598.00 433.95 C598.00,437.34 597.96,438.05 596.47,437.90 C597.13,437.61 597.56,436.60 598.00,433.95 ZM 643.19 345.51 C645.47,345.25 647.59,345.22 649.37,345.45 C652.00,345.80 654.60,346.49 657.14,347.49 C652.62,345.77 647.93,345.08 643.19,345.51 ZM 696.12 446.95 C696.06,443.62 696.28,438.98 696.69,433.69 C696.43,438.35 696.22,443.17 696.12,446.95 ZM 930.24 377.41 C929.45,374.34 928.32,371.42 926.87,368.74 C928.07,370.82 929.02,372.89 929.58,374.76 C929.82,375.56 930.04,376.45 930.24,377.41 ZM 922.32 362.24 C919.33,358.77 916.72,356.59 912.81,354.61 C913.92,355.12 914.87,355.61 915.60,356.06 C917.77,357.40 920.14,359.63 922.32,362.24 ZM 701.34 397.32 C701.91,394.19 702.50,391.36 703.08,389.00 C704.48,383.30 707.42,374.08 710.47,365.42 C707.36,374.26 704.39,383.62 703.13,389.00 C702.62,391.18 701.94,394.38 701.34,397.32 ZM 502.76 463.71 C508.96,464.07 515.82,463.72 521.74,462.73 C518.60,463.29 515.27,463.64 511.76,463.78 C508.57,463.91 505.58,463.89 502.76,463.71 ZM 476.24 455.18 C479.77,457.47 483.75,459.40 488.11,460.91 C485.57,460.06 483.08,459.01 480.56,457.75 C479.12,457.03 477.67,456.16 476.24,455.18 ZM 560.47 416.04 C560.62,412.23 560.74,407.39 560.83,401.97 C560.79,407.65 560.68,412.23 560.47,416.04 ZM 915.38 420.98 C914.25,421.75 913.10,422.44 911.97,423.02 C909.06,424.50 906.73,425.57 904.19,426.36 C908.45,424.85 912.17,423.07 915.38,420.98 ZM 687.46 396.50 C688.69,399.63 689.78,401.94 690.08,402.00 C690.08,402.00 690.07,402.00 690.07,402.00 C689.70,402.00 688.56,399.64 687.55,396.75 C687.52,396.67 687.49,396.59 687.46,396.50 ZM 511.97 444.63 C516.86,444.20 521.54,442.65 525.37,440.13 C521.46,442.72 516.81,444.24 511.97,444.63 ZM 893.67 428.10 C889.51,428.41 884.16,428.58 876.75,428.73 C884.12,428.58 889.59,428.38 893.67,428.10 ZM 895.89 349.08 C895.67,349.05 895.44,349.03 895.20,349.01 C895.41,349.02 895.64,349.04 895.89,349.08 Z" fill="rgb(254,254,254)"/>

<path d="M 685.88 472.25 C685.82,471.84 685.60,469.70 685.39,467.50 C684.67,459.73 684.32,458.67 681.71,456.43 C678.98,454.08 677.46,446.95 679.50,446.07 C680.05,445.84 683.10,450.67 686.28,456.82 C693.05,469.91 694.58,470.72 698.35,463.30 C700.48,459.10 700.81,458.83 701.43,460.79 C701.81,461.99 701.83,464.96 701.47,467.38 C700.88,471.28 700.46,471.86 697.78,472.39 C693.54,473.24 686.02,473.15 685.88,472.25 ZM 493.50 465.28 C486.35,464.48 479.03,463.85 477.24,463.86 C474.44,463.88 473.77,463.38 472.49,460.33 C471.53,458.03 470.52,456.97 469.62,457.32 C467.89,457.98 463.75,455.21 464.55,453.92 C465.64,452.16 464.01,449.43 461.77,449.26 C460.54,449.17 459.03,448.39 458.41,447.55 C457.09,445.74 456.53,432.00 457.78,432.00 C458.25,432.00 459.70,434.59 461.00,437.75 C464.01,445.03 472.51,453.72 480.56,457.75 C490.09,462.51 499.30,464.29 511.76,463.78 C533.22,462.91 547.68,454.24 555.62,437.50 C560.51,427.18 561.10,420.85 560.78,381.75 L 560.50 347.00 L 562.73 347.00 C565.98,347.00 568.32,351.02 567.04,354.38 C566.12,356.81 565.30,372.66 565.09,392.31 C565.03,397.24 564.63,399.89 564.00,399.50 C563.38,399.12 563.00,400.82 563.00,403.94 C563.00,406.72 563.45,409.00 564.00,409.00 C564.55,409.00 565.00,410.48 565.00,412.30 C565.00,414.11 565.55,416.15 566.22,416.82 C567.17,417.77 567.02,418.83 565.48,421.77 C564.41,423.82 562.85,426.17 562.01,427.00 C561.18,427.83 560.47,429.85 560.43,431.50 C560.16,441.98 558.40,447.04 554.37,448.88 C552.84,449.57 552.03,450.94 551.82,453.20 C551.53,456.18 551.16,456.53 548.00,456.80 C545.74,457.00 543.61,458.07 542.00,459.82 C538.85,463.24 535.71,464.56 530.00,464.87 C527.53,465.00 521.67,465.53 517.00,466.05 C512.33,466.56 508.05,466.92 507.50,466.85 C506.95,466.78 500.65,466.07 493.50,465.28 ZM 827.67 464.33 C826.60,463.27 826.90,455.00 828.00,455.00 C828.65,455.00 829.00,439.68 829.00,411.03 C829.00,373.15 829.20,367.14 830.44,367.62 C831.67,368.09 831.89,375.12 831.93,414.66 C831.95,440.22 832.23,461.56 832.54,462.07 C832.86,462.58 838.04,463.00 844.06,463.00 L 855.00 463.00 L 855.00 446.10 L 855.00 429.20 L 876.75 428.73 C899.41,428.25 902.78,427.71 911.97,423.02 C918.11,419.88 924.54,413.56 927.38,407.87 L 929.85 402.91 L 929.84 407.71 C929.83,410.34 929.98,413.34 930.16,414.36 C930.53,416.41 928.99,417.57 924.65,418.49 C922.49,418.94 921.91,419.54 922.27,420.93 C923.15,424.28 921.47,425.27 914.69,425.43 C909.08,425.56 907.88,425.92 906.11,428.04 C904.99,429.39 904.05,430.80 904.03,431.17 C904.01,431.54 900.38,431.87 895.96,431.90 C890.98,431.93 888.14,431.58 888.52,430.97 C889.40,429.54 876.65,429.75 875.21,431.19 C874.46,431.94 871.10,432.31 866.12,432.21 C859.38,432.06 858.16,432.29 857.79,433.77 C857.56,434.72 857.52,441.51 857.71,448.86 C857.95,457.95 857.69,462.67 856.91,463.61 C856.03,464.67 852.52,465.00 842.04,465.00 C834.50,465.00 828.03,464.70 827.67,464.33 ZM 712.86 434.64 C719.41,421.91 729.17,402.95 734.54,392.50 C751.88,358.75 759.46,346.01 765.37,340.67 L 768.50 337.85 L 764.14 338.34 C758.64,338.97 755.78,341.64 749.78,351.76 C744.57,360.53 726.68,394.78 708.83,430.14 C702.20,443.26 696.54,454.00 696.24,454.00 C695.63,454.00 696.66,429.74 697.66,420.68 C698.36,414.26 699.96,414.77 699.98,421.42 C699.99,423.57 700.30,425.04 700.66,424.68 C701.02,424.31 701.82,424.44 702.45,424.96 C704.41,426.58 708.43,423.80 708.68,420.66 C709.11,415.03 710.96,411.48 714.43,409.61 C716.32,408.59 717.88,407.03 717.92,406.13 C718.04,402.58 718.36,401.00 718.95,401.00 C719.30,401.00 719.63,400.21 719.71,399.24 C719.97,395.70 720.54,394.53 722.48,393.51 C724.85,392.26 727.14,388.03 726.24,386.57 C724.20,383.28 727.45,376.47 730.51,377.64 C732.04,378.23 733.32,376.43 733.79,373.02 C733.98,371.65 734.66,370.20 735.32,369.78 C735.97,369.37 736.11,369.02 735.63,369.02 C735.15,369.01 735.28,368.37 735.92,367.60 C736.81,366.52 736.78,366.06 735.79,365.60 C734.91,365.19 734.85,364.83 735.61,364.46 C739.17,362.74 740.10,361.18 740.43,356.38 C740.94,348.87 741.75,347.00 744.53,347.00 C746.96,347.00 749.59,343.76 748.54,342.06 C747.74,340.77 750.80,338.00 753.01,338.00 C755.27,338.00 756.21,336.71 755.43,334.67 C754.70,332.77 752.61,331.89 747.50,331.33 C741.53,330.66 741.21,330.44 739.91,326.10 C738.73,322.16 738.67,322.12 736.02,323.49 C734.54,324.25 733.26,325.47 733.18,326.19 C732.71,330.04 732.33,331.66 731.57,332.88 C731.07,333.69 731.23,334.53 731.97,334.98 C732.86,335.53 732.57,336.19 730.94,337.33 C729.69,338.20 728.33,338.71 727.92,338.45 C726.64,337.66 722.93,343.20 723.51,345.04 C723.85,346.09 723.42,347.01 722.43,347.39 C721.37,347.79 721.03,348.63 721.45,349.73 C721.81,350.67 721.78,351.12 721.39,350.73 C720.35,349.68 718.16,353.22 716.05,359.35 C715.04,362.30 713.00,366.63 711.52,368.96 C709.58,372.03 708.76,374.80 708.56,378.92 C708.40,382.05 707.82,385.49 707.27,386.56 C706.71,387.63 706.48,389.40 706.75,390.50 C707.96,395.49 707.24,398.06 703.64,401.56 C701.64,403.50 700.00,404.87 700.00,404.60 C700.00,403.79 701.99,393.87 703.13,389.00 C705.44,379.15 713.45,355.98 717.64,347.04 C720.07,341.84 725.02,333.15 728.63,327.73 C733.76,320.03 735.05,317.35 734.57,315.44 C734.24,314.10 733.57,313.00 733.10,313.00 C731.29,313.00 719.81,329.92 714.98,339.72 C700.91,368.24 691.42,408.08 690.92,440.75 C690.84,446.39 690.48,451.00 690.13,450.99 C689.78,450.98 685.57,443.22 680.76,433.74 C661.09,394.93 641.59,358.34 639.26,355.83 C637.90,354.36 637.08,352.68 637.45,352.08 C637.82,351.48 641.12,351.00 644.90,351.00 C656.75,351.00 665.85,357.07 675.62,371.49 C677.48,374.23 679.00,376.79 679.00,377.17 C679.00,378.04 671.05,378.00 670.87,377.13 C670.80,376.78 670.63,375.40 670.50,374.06 C670.37,372.72 669.19,370.81 667.88,369.82 C664.81,367.49 664.37,367.04 661.92,363.76 C659.98,361.17 659.71,361.10 657.11,362.44 C652.84,364.65 651.66,366.50 652.97,368.94 C653.74,370.38 653.75,371.00 653.00,371.00 C652.26,371.00 652.24,371.58 652.93,372.87 C653.48,373.90 653.71,374.96 653.44,375.23 C652.71,375.95 656.04,378.47 657.76,378.48 C658.58,378.49 659.98,379.61 660.87,380.96 C662.22,382.99 662.24,383.26 661.00,382.52 C659.72,381.75 659.70,381.86 660.83,383.26 C662.19,384.94 662.18,389.65 660.80,391.58 C660.36,392.21 660.61,392.67 661.41,392.67 C662.16,392.67 664.19,393.25 665.90,393.96 C669.20,395.33 669.83,396.87 669.80,403.45 C669.78,406.44 670.35,407.84 672.14,409.20 C676.64,412.63 677.00,413.09 677.00,415.39 C677.00,419.34 679.00,423.68 681.30,424.71 C684.26,426.04 685.99,425.29 686.04,422.67 C686.07,421.48 686.68,418.86 687.39,416.84 C688.48,413.82 688.47,412.64 687.35,409.98 C686.61,408.21 686.00,405.06 686.00,402.97 C686.00,397.78 685.23,396.17 681.94,394.47 C679.71,393.32 678.99,392.09 678.46,388.57 C678.09,386.12 678.24,382.86 678.78,381.31 C679.77,378.53 679.81,378.57 682.74,385.00 C684.37,388.58 686.53,393.86 687.55,396.75 C688.56,399.64 689.70,402.00 690.07,402.00 C690.43,402.00 690.98,400.16 691.28,397.91 C691.98,392.73 689.72,386.04 682.83,372.86 C674.62,357.17 662.44,347.19 649.37,345.45 C643.70,344.70 634.52,346.67 627.86,350.07 C613.51,357.39 602.30,377.25 596.39,405.81 C594.89,413.06 593.55,418.88 593.41,418.75 C592.52,417.85 592.44,406.13 593.32,404.50 C593.90,403.40 594.26,401.22 594.11,399.66 C593.94,397.91 594.59,395.98 595.80,394.66 C597.83,392.42 599.61,385.57 599.92,378.72 C599.96,377.74 601.30,375.66 602.89,374.11 C607.28,369.81 607.95,367.92 607.30,361.57 C606.66,355.44 607.74,353.50 611.19,354.57 C612.86,355.09 615.52,351.86 614.37,350.71 C614.07,350.40 614.09,349.31 614.41,348.27 C614.92,346.68 615.97,346.41 621.25,346.50 C624.69,346.56 627.95,346.24 628.50,345.79 C629.05,345.34 630.76,343.85 632.30,342.48 C635.20,339.92 638.42,339.25 639.50,341.00 C640.31,342.32 643.74,342.29 644.18,340.96 C644.74,339.29 650.33,339.20 652.25,340.83 C653.21,341.64 654.01,341.90 654.02,341.40 C654.02,340.91 654.36,340.96 654.77,341.52 C656.48,343.91 661.21,346.00 664.91,346.00 C669.26,346.00 669.90,346.54 670.22,350.45 C670.38,352.36 671.13,353.22 672.97,353.62 C678.13,354.74 678.39,355.06 677.93,359.75 C677.88,360.16 679.57,360.99 681.68,361.59 C685.30,362.62 685.51,362.90 685.69,366.97 C685.80,369.33 686.12,371.86 686.40,372.60 C686.68,373.33 686.50,374.19 685.99,374.50 C685.45,374.84 685.53,376.08 686.19,377.53 C686.98,379.26 687.93,379.86 689.41,379.58 C693.52,378.79 694.87,377.80 696.50,374.36 C697.41,372.45 698.77,370.64 699.52,370.35 C700.34,370.04 700.87,368.37 700.85,366.16 C700.83,364.15 701.24,360.16 701.75,357.30 C702.26,354.45 702.35,351.56 701.93,350.89 C700.86,349.16 701.93,347.00 703.86,346.98 C706.83,346.96 708.02,345.43 710.54,338.43 C711.90,334.62 713.92,330.88 715.01,330.13 C716.10,329.37 717.00,327.95 717.00,326.96 C717.00,324.07 718.11,322.00 719.65,322.00 C720.45,322.00 722.12,320.89 723.38,319.54 C725.16,317.62 725.62,316.05 725.47,312.44 C725.29,308.16 725.50,307.72 728.14,306.80 C730.48,305.99 731.00,305.23 730.98,302.65 C730.98,300.92 730.56,298.86 730.07,298.08 C729.49,297.16 729.81,295.02 730.98,292.04 C732.22,288.90 732.64,285.96 732.29,282.85 C731.82,278.72 732.04,278.08 734.48,276.38 C735.97,275.35 737.94,273.69 738.85,272.70 C739.76,271.71 741.76,269.60 743.30,268.00 C744.84,266.41 746.29,264.11 746.52,262.88 C747.06,260.07 748.86,258.93 751.63,259.62 C752.81,259.92 754.08,259.67 754.45,259.08 C754.84,258.45 756.23,258.27 757.71,258.64 C759.15,259.00 760.05,258.90 759.74,258.40 C758.96,257.13 779.07,257.67 780.35,258.95 C780.93,259.53 783.72,260.00 786.57,260.00 C791.69,260.00 797.73,263.02 796.52,264.98 C795.91,265.95 798.83,267.22 800.01,266.49 C801.08,265.83 805.00,270.79 805.00,272.81 C805.00,275.11 807.98,277.95 809.71,277.28 C811.01,276.78 811.05,277.04 810.00,278.99 C809.03,280.81 809.03,282.07 810.02,285.07 C810.71,287.15 811.00,289.56 810.67,290.43 C810.33,291.29 810.40,292.00 810.81,292.00 C812.31,292.00 813.69,297.60 812.80,300.01 C812.31,301.33 812.18,304.98 812.50,308.12 C813.16,314.60 812.55,315.50 807.21,315.88 C804.91,316.03 802.50,324.19 803.94,326.90 C804.59,328.11 804.53,329.07 803.75,329.85 C802.35,331.25 799.00,331.37 799.00,330.02 C799.00,329.48 796.95,329.84 794.45,330.82 C789.21,332.88 785.40,337.57 787.20,339.75 C788.82,341.69 786.73,343.40 783.67,342.63 C781.85,342.18 781.32,341.50 781.68,340.13 C782.04,338.72 781.39,337.98 779.05,337.17 C777.24,336.54 776.18,336.48 776.52,337.04 C776.85,337.57 776.38,338.00 775.48,338.00 C774.17,338.00 773.98,338.62 774.52,341.07 C775.30,344.64 773.15,346.92 768.95,346.97 C765.96,347.01 764.00,348.68 764.00,351.19 C764.00,352.28 762.66,353.54 760.54,354.42 C757.10,355.86 755.62,358.56 756.02,362.64 C756.37,366.07 754.83,368.83 751.89,370.04 C748.83,371.31 748.12,372.92 747.70,379.50 C747.41,384.17 746.47,386.00 744.37,386.00 C741.16,386.00 739.78,388.79 740.48,393.87 C741.21,399.14 739.39,402.47 736.42,401.33 C734.74,400.69 732.08,403.57 732.03,406.10 C732.01,406.99 730.87,408.93 729.49,410.42 C726.57,413.57 724.00,419.24 724.00,422.54 C724.00,425.71 722.97,428.10 721.90,427.44 C721.40,427.13 721.00,427.61 721.00,428.50 C721.00,429.39 720.61,429.88 720.14,429.59 C719.10,428.94 715.74,436.06 716.19,437.97 C716.36,438.72 715.54,439.84 714.36,440.46 C709.57,442.96 708.77,444.25 709.26,448.62 C709.85,453.81 709.17,454.96 704.57,456.54 L 700.94 457.78 L 712.86 434.64 ZM 653.03 359.94 C654.31,357.55 653.42,354.00 651.54,354.00 C650.82,354.00 649.19,354.84 647.93,355.86 C645.83,357.56 645.75,357.97 646.93,360.83 C648.01,363.45 648.52,363.79 650.09,362.95 C651.11,362.40 652.44,361.05 653.03,359.94 ZM 786.75 330.42 C794.32,326.72 800.48,320.32 804.31,312.20 C807.08,306.31 807.46,304.47 807.45,297.00 C807.44,289.94 806.99,287.54 804.81,282.82 C800.87,274.33 789.92,263.42 787.63,265.71 C787.28,266.05 787.00,265.82 787.00,265.19 C787.00,264.57 784.45,263.31 781.33,262.41 C774.50,260.42 762.92,260.87 758.48,263.30 C756.84,264.19 754.12,265.59 752.44,266.40 C749.19,267.96 740.47,276.80 741.33,277.66 C741.61,277.94 740.97,279.03 739.92,280.08 C738.86,281.14 738.00,283.04 738.00,284.30 C738.00,285.57 737.48,287.12 736.84,287.76 C735.34,289.26 735.20,303.05 736.65,306.14 C737.26,307.44 738.60,310.52 739.62,313.00 C741.72,318.10 748.60,325.97 753.72,329.13 C762.95,334.84 776.62,335.38 786.75,330.42 ZM 501.73 443.91 C495.57,442.46 490.49,439.37 486.12,434.40 C479.28,426.63 479.00,424.61 479.00,383.90 C479.00,356.22 478.72,348.07 477.75,347.72 C477.06,347.47 476.77,346.98 477.11,346.61 C477.44,346.25 478.45,346.24 479.36,346.58 C480.83,347.15 481.02,350.77 481.19,382.11 C481.29,401.30 481.40,418.24 481.44,419.75 C481.48,421.74 482.32,422.94 484.46,424.10 C486.27,425.07 487.73,426.88 488.21,428.72 C489.03,431.91 491.60,434.73 492.69,433.64 C493.67,432.67 497.00,436.07 497.00,438.03 C497.00,441.34 500.42,442.36 511.57,442.35 C517.81,442.35 521.13,439.59 521.29,434.25 C521.32,433.56 522.50,432.97 523.92,432.92 C525.34,432.88 527.23,432.71 528.12,432.53 C529.00,432.36 530.35,432.63 531.12,433.14 C532.20,433.86 531.58,434.89 528.28,437.89 C521.74,443.82 511.36,446.18 501.73,443.91 ZM 677.50 442.85 C677.20,442.07 675.96,441.35 674.74,441.26 C672.38,441.08 669.72,438.26 670.59,436.85 C670.88,436.38 670.72,436.00 670.23,436.00 C669.73,436.00 669.33,434.42 669.33,432.48 C669.33,430.16 668.60,428.27 667.17,426.94 C665.31,425.21 664.58,423.71 665.15,422.75 C665.23,422.61 664.35,420.64 663.19,418.37 C662.03,416.10 661.36,413.98 661.69,413.65 C662.68,412.66 659.78,409.87 658.34,410.42 C657.60,410.71 657.00,410.47 657.00,409.91 C657.00,409.34 656.60,409.13 656.12,409.43 C655.22,409.98 653.38,406.14 652.79,402.50 C652.53,400.89 651.83,400.56 649.21,400.83 L 645.94 401.16 L 646.00 395.33 C646.07,387.46 645.85,386.02 644.58,385.90 C643.99,385.85 642.39,385.73 641.04,385.65 C638.77,385.51 638.57,385.08 638.39,380.00 C638.12,372.24 637.91,371.74 634.00,369.47 C632.08,368.35 630.50,366.65 630.50,365.69 C630.50,363.62 628.32,362.04 625.47,362.02 C623.97,362.00 623.38,362.72 623.21,364.75 C623.08,366.30 621.68,368.72 619.99,370.30 C618.35,371.84 617.00,373.56 617.00,374.11 C617.00,374.66 616.66,374.91 616.25,374.66 C615.84,374.40 615.38,376.06 615.23,378.35 C615.07,380.63 614.48,383.94 613.91,385.70 C613.20,387.89 613.20,389.51 613.90,390.82 C615.18,393.20 614.44,394.00 610.96,394.00 C607.00,394.00 606.25,395.56 605.64,405.00 C605.33,409.67 605.07,413.64 605.04,413.81 C605.02,413.98 604.58,413.86 604.06,413.54 C603.50,413.19 603.36,414.44 603.72,416.63 C604.17,419.44 604.01,420.13 603.06,419.53 C602.06,418.92 602.05,419.22 602.99,420.97 C603.99,422.84 603.85,423.49 602.14,425.09 C599.19,427.83 598.66,425.99 600.02,417.71 C604.24,391.97 611.89,372.29 621.56,362.25 C627.28,356.31 630.30,355.60 634.44,359.25 C635.85,360.49 642.00,371.17 648.10,383.00 C654.21,394.83 663.69,413.20 669.18,423.84 C674.66,434.48 678.90,443.43 678.60,443.74 C678.29,444.04 677.80,443.64 677.50,442.85 ZM 593.22 439.62 C590.29,438.05 591.39,436.93 595.12,437.67 C597.94,438.24 598.00,438.16 598.00,433.91 C598.00,430.03 598.16,429.73 599.52,431.09 C600.88,432.45 600.88,432.94 599.50,435.70 C597.24,440.22 595.91,441.06 593.22,439.62 ZM 531.43 430.33 C531.78,429.41 531.62,428.38 531.06,428.04 C530.48,427.68 531.09,426.30 532.53,424.75 C534.14,423.02 535.00,420.93 534.98,418.79 C534.81,394.61 534.78,362.32 534.92,353.82 C534.97,350.93 535.63,348.52 536.62,347.52 C537.51,346.63 538.30,346.04 538.37,346.20 C538.44,346.37 538.24,363.38 537.93,384.00 C537.36,421.94 536.72,428.40 533.44,429.66 C532.66,429.96 532.26,430.61 532.56,431.10 C532.87,431.60 532.59,432.00 531.95,432.00 C531.27,432.00 531.05,431.30 531.43,430.33 ZM 455.91 428.67 C452.50,426.15 451.89,423.28 452.60,412.98 C452.98,407.49 453.67,403.00 454.14,403.00 C455.37,403.00 455.23,377.26 454.00,376.50 C453.45,376.16 453.00,373.24 453.00,370.00 C453.00,366.76 453.45,363.84 454.00,363.50 C454.55,363.16 454.97,360.55 454.93,357.69 C454.89,354.84 454.55,353.17 454.18,354.00 C452.39,357.96 449.14,354.27 450.54,349.87 C451.07,348.19 451.41,348.03 452.09,349.12 C452.81,350.26 452.97,350.23 452.98,348.96 C452.99,348.12 453.79,347.37 454.75,347.29 C456.39,347.17 456.48,349.43 456.22,383.83 C456.07,404.53 456.36,422.45 456.90,424.99 C457.43,427.46 457.78,429.56 457.68,429.66 C457.58,429.76 456.78,429.31 455.91,428.67 ZM 699.00 411.50 C699.00,410.12 699.45,409.00 700.00,409.00 C700.55,409.00 701.00,410.12 701.00,411.50 C701.00,412.88 700.55,414.00 700.00,414.00 C699.45,414.00 699.00,412.88 699.00,411.50 ZM 856.25 410.41 C855.31,409.97 855.00,404.56 855.00,388.36 L 855.00 366.89 L 875.33 367.19 C895.47,367.50 895.69,367.52 899.71,370.18 C908.60,376.07 911.33,390.01 905.48,399.61 C903.19,403.37 901.18,405.16 896.78,407.36 C891.30,410.10 890.36,410.24 874.28,410.60 C865.05,410.82 856.94,410.73 856.25,410.41 ZM 888.68 407.25 C889.75,404.25 892.22,402.00 894.46,402.00 C897.15,402.00 898.99,400.21 899.04,397.55 C899.06,396.36 900.42,394.64 902.29,393.46 C905.21,391.59 905.48,391.01 905.22,386.96 C904.80,380.11 904.14,378.01 902.62,378.59 C900.84,379.28 898.00,376.39 898.00,373.90 C898.00,370.71 893.91,370.00 875.56,370.00 L 858.24 370.00 L 857.52 383.45 C857.12,390.86 857.11,399.18 857.49,401.95 L 858.19 407.00 L 866.84 407.02 C872.80,407.03 875.03,407.33 874.00,408.00 C872.96,408.67 874.89,408.97 880.28,408.98 C886.80,409.00 888.16,408.72 888.68,407.25 ZM 930.70 398.25 C931.98,392.23 931.44,380.97 929.58,374.76 C927.64,368.28 921.00,359.40 915.60,356.06 C911.19,353.34 898.48,349.00 894.90,349.00 C893.38,349.00 891.44,348.29 890.57,347.43 C888.40,345.25 888.61,344.64 891.25,345.47 C893.51,346.18 896.59,346.54 907.31,347.34 C910.50,347.58 913.39,348.06 913.72,348.39 C914.25,348.92 914.53,350.33 914.92,354.38 C914.96,354.86 916.35,354.98 917.99,354.65 C920.71,354.11 921.18,354.42 923.03,358.06 C924.16,360.27 925.62,362.00 926.29,361.92 C929.56,361.50 929.67,361.71 930.31,369.25 C930.41,370.49 931.41,372.02 932.53,372.67 C934.26,373.66 934.57,374.91 934.67,381.17 C934.76,387.50 934.68,387.89 934.04,384.00 C933.35,379.83 933.29,380.03 933.15,386.81 C933.07,390.84 933.40,393.87 933.89,393.57 C935.36,392.66 937.21,395.76 936.52,397.95 C936.16,399.09 935.00,400.00 933.93,400.00 C932.87,400.00 932.00,400.45 932.00,401.00 C932.00,401.55 931.53,402.00 930.95,402.00 C930.27,402.00 930.19,400.70 930.70,398.25 ZM 829.00 363.77 C829.00,362.47 828.47,360.87 827.82,360.22 C826.91,359.31 826.95,358.46 827.97,356.55 C829.08,354.48 829.08,353.80 827.93,352.42 C826.75,350.99 826.88,350.52 828.89,348.89 C830.17,347.85 831.51,347.00 831.86,347.00 C833.18,346.99 831.85,363.29 830.42,364.72 C829.19,365.95 829.00,365.82 829.00,363.77 ZM 726.70 287.61 C726.29,286.57 726.19,285.48 726.48,285.19 C727.39,284.28 728.19,285.77 727.81,287.67 C727.46,289.41 727.41,289.41 726.70,287.61 ZM 774.18 254.33 C774.35,253.42 775.13,252.46 775.89,252.20 C776.73,251.92 777.00,252.18 776.58,252.87 C776.16,253.55 776.60,254.01 777.69,254.02 C779.22,254.03 779.27,254.18 778.00,255.00 C775.68,256.50 773.82,256.18 774.18,254.33 ZM 768.00 327.13 C768.00,325.41 768.39,324.00 768.87,324.00 C769.34,324.00 771.11,320.93 772.79,317.17 C774.92,312.39 777.67,308.53 781.92,304.32 C785.26,301.01 788.00,298.56 788.00,298.89 C788.00,299.21 789.14,298.25 790.54,296.74 C791.94,295.23 793.51,294.00 794.04,294.00 C794.57,294.00 795.23,294.01 795.51,294.02 C795.79,294.03 797.38,293.34 799.04,292.48 C800.70,291.62 802.50,291.19 803.03,291.52 C803.56,291.85 804.00,294.48 804.00,297.38 C804.00,314.60 791.41,328.59 774.85,329.78 L 768.00 330.27 L 768.00 327.13 ZM 785.50 322.00 C785.16,321.45 785.36,321.00 785.94,321.00 C786.52,321.00 787.01,320.21 787.03,319.25 C787.08,316.66 789.69,313.67 791.35,314.31 C793.90,315.28 795.82,312.68 796.17,307.75 C796.36,305.14 796.15,303.00 795.70,303.00 C795.25,303.00 795.13,302.60 795.44,302.10 C796.14,300.96 794.19,300.21 790.99,300.40 C789.00,300.51 788.55,301.01 788.76,302.90 C789.08,305.80 787.36,308.08 785.41,307.33 C783.13,306.45 781.00,308.95 781.00,312.50 C781.00,314.29 780.33,316.32 779.50,317.00 C777.70,318.49 777.49,321.34 779.22,320.76 C779.90,320.53 781.58,320.94 782.97,321.67 C786.02,323.26 786.30,323.29 785.50,322.00 ZM 763.01 326.75 C763.02,325.51 764.14,322.09 765.51,319.15 C766.88,316.21 768.00,313.22 768.00,312.51 C768.00,311.79 769.12,310.15 770.48,308.85 C771.85,307.56 772.97,306.23 772.98,305.90 C773.01,305.09 783.90,294.24 784.30,294.63 C784.47,294.81 786.05,293.63 787.81,292.03 C789.56,290.43 791.00,289.32 791.00,289.58 C791.00,289.83 792.78,289.13 794.96,288.02 C802.05,284.40 803.66,286.16 796.75,289.98 C784.01,297.01 773.96,307.96 767.94,321.34 C764.42,329.17 762.99,330.74 763.01,326.75 ZM 756.34 325.44 C755.52,323.30 759.96,312.37 762.96,309.14 C764.32,307.69 765.56,305.62 765.74,304.53 C766.21,301.60 768.84,298.00 770.52,298.00 C771.34,298.00 772.00,297.46 772.00,296.80 C772.00,295.51 776.92,290.00 778.08,290.00 C778.47,290.00 780.26,288.62 782.07,286.94 C784.38,284.78 785.99,284.03 787.52,284.42 C789.61,284.94 790.17,284.33 792.84,278.64 C793.75,276.70 786.22,279.50 782.13,282.63 C779.70,284.48 777.39,286.00 776.99,286.00 C774.48,286.00 760.75,302.87 759.63,307.33 C759.26,308.83 758.02,310.98 756.88,312.12 C755.53,313.47 754.97,315.04 755.26,316.60 C755.52,317.92 755.34,319.00 754.86,319.00 C754.39,319.00 754.00,319.65 754.00,320.44 C754.00,322.55 752.13,323.35 750.46,321.96 C748.30,320.17 748.61,318.64 753.01,309.24 C755.21,304.53 756.87,300.54 756.69,300.35 C755.89,299.56 752.94,302.70 752.54,304.77 C752.30,306.01 751.40,307.74 750.54,308.60 C749.69,309.46 749.24,310.57 749.55,311.08 C749.86,311.59 749.59,312.00 748.95,312.00 C748.31,312.00 748.03,312.64 748.33,313.42 C748.78,314.58 747.18,316.00 745.42,316.00 C743.97,316.00 745.61,310.89 749.50,303.34 C751.97,298.53 754.00,294.37 754.00,294.11 C754.00,293.84 752.71,294.94 751.14,296.56 C747.84,299.95 743.67,307.66 744.46,308.93 C744.75,309.40 744.33,310.04 743.52,310.35 C739.50,311.90 738.91,291.44 742.73,282.85 C748.25,270.45 761.57,263.59 776.51,265.46 C782.42,266.20 783.50,267.48 779.50,269.00 C778.12,269.52 777.00,270.65 777.00,271.50 C777.00,272.81 777.59,272.74 780.96,271.02 C783.14,269.91 785.61,269.00 786.46,269.00 C789.75,269.00 787.68,271.00 780.25,274.98 C773.39,278.66 760.34,289.67 761.48,290.82 C761.72,291.05 760.92,292.08 759.71,293.09 C757.90,294.60 757.80,294.94 759.17,294.97 C760.08,294.99 762.28,293.17 764.06,290.93 C770.58,282.69 789.30,271.43 792.78,273.64 C793.75,274.26 794.36,275.67 794.19,276.87 C793.96,278.42 794.40,279.00 795.81,279.00 C796.88,279.00 798.28,279.63 798.91,280.39 C799.85,281.53 798.54,282.67 791.86,286.52 C786.87,289.40 780.80,294.11 776.40,298.50 C770.46,304.44 768.23,307.65 763.97,316.37 C758.83,326.89 757.50,328.47 756.34,325.44 Z" fill="rgb(251,252,251)"/>
<circle cx="771" cy="297" r="37" fill="#ffffff" stroke="#000000" stroke-width="3"/></g>
</svg>